<svg width="50" height="50" viewBox="0 0 50 50" fill="none" xmlns="http://www.w3.org/2000/svg">
<rect width="50" height="50" rx="10" fill="#8C52FF"/>
<path d="M32.929 15.8312C32.9092 15.8242 32.8894 15.8171 32.8482 15.8038C32.8268 15.7975 32.8102 15.7836 32.802 15.769C32.4865 15.7609 32.1791 15.7674 31.845 15.7756C31.5658 15.8009 31.3134 15.8245 31.0494 15.8403C30.9985 15.8461 30.9592 15.8599 30.9199 15.8737C30.9199 15.8737 30.92 15.885 30.9038 15.8866C30.8619 15.8891 30.8361 15.8899 30.8017 15.8862C30.7723 15.8777 30.7548 15.8836 30.7199 15.9026C30.6572 15.9131 30.6154 15.9203 30.5544 15.9246C30.4998 15.9347 30.4642 15.9474 30.4064 15.9662C30.2794 15.9978 30.1748 16.0233 30.0508 16.0473C29.997 16.0617 29.9625 16.0776 29.9113 16.0997C29.871 16.1101 29.8475 16.1144 29.803 16.1143C29.7234 16.1397 29.6646 16.1692 29.5893 16.205C29.55 16.2177 29.5273 16.2243 29.4852 16.23C29.4327 16.2465 29.3995 16.2639 29.3465 16.2908C28.274 16.7431 27.3571 17.3687 26.5394 18.2892C29.2857 18.0794 31.9075 18.2687 34.4949 18.8843C37.0706 19.497 39.5269 20.4263 41.9046 21.5658C37.9168 21.4955 34.1806 22.7499 30.2694 23.5458C30.4144 23.6327 30.4653 23.6656 30.5182 23.6946C32.7309 24.9082 34.6706 26.4527 36.2844 28.3825C36.7011 28.8807 37.063 29.4235 37.4231 29.9432C36.0091 29.7142 34.6247 29.4704 33.2344 29.265C30.1149 28.8042 26.9724 28.4774 23.8927 27.6645C23.0606 27.3581 22.2451 27.071 21.439 26.7602C21.2625 26.6921 21.1632 26.7137 21.0271 26.8307C20.0129 27.7023 18.9987 28.5742 17.9659 29.424C17.7454 29.6054 17.6679 29.7636 17.716 30.0437C17.923 31.2479 18.0066 32.4616 17.8339 33.6765C17.5839 35.4341 16.7495 36.817 15.1376 37.6899C14.9242 37.8054 14.8045 37.8099 14.661 37.5859C13.8793 36.3658 13.2799 35.0674 12.887 33.6763C12.0039 30.5497 12.2224 27.4456 13.1388 24.3729C13.4118 23.4575 13.8001 22.5712 14.1914 21.6959C14.7708 20.4 15.5127 19.1915 16.3635 18.0503C16.4333 17.9566 16.5339 17.8853 16.6234 17.8314C16.6324 18.5578 16.6032 19.2587 16.6526 19.9542C16.7197 20.9003 16.9414 21.8193 17.3065 22.7015C18.0304 24.4507 19.34 25.6491 20.9914 26.5208C21.0772 26.5661 21.2854 26.5409 21.3336 26.4749C21.7379 25.9222 22.139 25.3646 22.4935 24.7803C22.6085 24.5909 22.7032 24.5166 22.9153 24.5103C24.1404 24.4741 25.3657 24.4642 26.5767 24.2168C27.5643 24.0151 28.5647 23.875 29.5584 23.7018C29.7132 23.6749 29.8625 23.6168 30.0144 23.5732C30.0193 23.5347 30.0242 23.4962 30.0291 23.4577C29.6789 23.2914 29.3371 23.104 28.9768 22.9627C27.5949 22.4211 26.2081 21.8917 24.8207 21.3641C24.5504 21.2613 24.5036 21.1552 24.6641 20.9036C25.1571 20.1307 25.5575 19.2966 26.2116 18.6295C26.2577 18.5824 26.2803 18.4609 26.2509 18.4083C26.2231 18.3587 26.1117 18.3325 26.0382 18.3345C25.8411 18.3398 25.6447 18.3672 25.4479 18.3833C24.7429 18.441 24.0385 18.5078 23.3327 18.5517C22.7302 18.5891 22.1258 18.622 21.5227 18.6155C21.0037 18.6099 20.4839 18.5588 19.967 18.504C19.3981 18.4437 18.8251 18.3892 18.2671 18.2712C17.7106 18.1536 17.1704 17.9605 16.6181 17.7789C16.6706 17.6722 16.7228 17.5829 16.7865 17.5026C17.9246 16.068 19.2212 14.798 20.7768 13.7776C20.8339 13.7457 20.871 13.7131 20.9229 13.6668C21.0432 13.5915 21.1487 13.5299 21.2779 13.469C21.3785 13.4395 21.4603 13.4177 21.5315 13.3776C22.6112 12.7691 23.7464 12.3369 25 12.2333C26.5332 12.1066 27.8158 12.6235 28.9224 13.6455C29.1373 13.844 29.3612 14.0824 29.6257 14.1695C30.2961 14.3902 30.9981 14.5152 31.6762 14.7154C32.7837 15.0425 33.8849 15.391 34.9831 15.7475C35.3179 15.8562 35.6373 16.0143 35.9568 16.1644C36.0583 16.212 36.2262 16.2938 35.9784 16.4101C35.9359 16.4007 35.9118 16.3949 35.8754 16.3793C35.8449 16.3584 35.8249 16.3534 35.7857 16.3511C35.7447 16.3413 35.7215 16.3353 35.6852 16.3204C35.6516 16.3078 35.6311 16.3042 35.5933 16.2966C35.5534 16.2862 35.5308 16.2797 35.4949 16.2644C35.4608 16.2515 35.44 16.2476 35.399 16.2393C35.3385 16.225 35.2983 16.215 35.2416 16.1936C35.1735 16.1723 35.1219 16.1622 35.0546 16.1499C35.0287 16.1453 35.0184 16.1431 34.9924 16.1301C34.9394 16.1147 34.9021 16.11 34.8429 16.1029C34.7356 16.078 34.6503 16.0555 34.555 16.0229C34.5091 16.0132 34.4733 16.0136 34.4166 16.0117C34.3276 15.9935 34.2595 15.9776 34.1782 15.9538C34.1449 15.9382 34.1246 15.9375 34.079 15.9425C33.9549 15.9251 33.8559 15.9091 33.7492 15.8863C33.7216 15.87 33.7024 15.8713 33.6589 15.881C33.3988 15.8628 33.1639 15.847 32.929 15.8312Z" fill="#F4EEFC"/>
<path d="M16.6233 17.8021C17.1704 17.9604 17.7105 18.1535 18.267 18.2712C18.825 18.3891 19.3981 18.4437 19.9669 18.504C20.4838 18.5588 21.0036 18.6098 21.5227 18.6154C22.1258 18.622 22.7302 18.5891 23.3326 18.5516C24.0385 18.5078 24.7429 18.441 25.4478 18.3833C25.6447 18.3671 25.8411 18.3398 26.0381 18.3344C26.1117 18.3324 26.2231 18.3587 26.2508 18.4083C26.2802 18.4609 26.2577 18.5824 26.2115 18.6295C25.5574 19.2966 25.157 20.1307 24.664 20.9036C24.5035 21.1552 24.5503 21.2612 24.8206 21.364C26.208 21.8917 27.5949 22.421 28.9767 22.9627C29.337 23.1039 29.6788 23.2914 30.0291 23.4577C30.0242 23.4961 30.0192 23.5346 30.0143 23.5731C29.8624 23.6168 29.7131 23.6748 29.5583 23.7018C28.5646 23.875 27.5642 24.015 26.5767 24.2167C25.3656 24.4641 24.1403 24.474 22.9152 24.5103C22.7031 24.5166 22.6084 24.5908 22.4935 24.7803C22.1389 25.3646 21.7379 25.9221 21.3336 26.4749C21.2853 26.5408 21.0771 26.566 20.9914 26.5208C19.3399 25.649 18.0303 24.4507 17.3064 22.7015C16.9414 21.8192 16.7196 20.9002 16.6525 19.9541C16.6031 19.2587 16.6323 18.5578 16.6233 17.8314C16.6202 17.8035 16.6235 17.8038 16.6233 17.8021Z" fill="#FEFEFE"/>
<path d="M26.552 18.2834C28.9647 15.5276 32.004 15.3109 36.1087 16.3018C37.6086 17.1524 33.4451 17.5559 26.552 18.2834Z" fill="#8C52FF"/>
</svg>
