<svg width="75" height="75" viewBox="0 0 75 75" fill="none" xmlns="http://www.w3.org/2000/svg">
<path fill-rule="evenodd" clip-rule="evenodd" d="M42.3468 18.9676V18.9676L42.6636 22.1356C42.8269 23.7691 42.9086 24.5859 43.4614 24.8149C44.0142 25.0439 44.6495 24.5241 45.9201 23.4845L48.3842 21.4684C49.05 20.9237 49.3828 20.6514 49.7677 20.6706C50.1525 20.6898 50.4566 20.9939 51.0649 21.6021L54.3978 24.935C55.006 25.5433 55.3101 25.8474 55.3293 26.2322C55.3485 26.6171 55.0762 26.9499 54.5315 27.6157L52.5154 30.0798C51.4758 31.3504 50.956 31.9857 51.185 32.5385C51.414 33.0914 52.2307 33.173 53.8643 33.3364L57.0324 33.6532C57.8883 33.7388 58.3163 33.7816 58.5748 34.0673C58.8334 34.353 58.8334 34.7831 58.8334 35.6433V40.3566C58.8334 41.2169 58.8334 41.647 58.5748 41.9326C58.3163 42.2183 57.8883 42.2611 57.0324 42.3467L53.865 42.6635C52.2315 42.8268 51.4147 42.9085 51.1857 43.4613C50.9568 44.0141 51.4766 44.6494 52.5161 45.92L54.5315 48.3833C55.0763 49.0491 55.3486 49.3819 55.3294 49.7668C55.3102 50.1516 55.0061 50.4557 54.3978 51.064L51.065 54.3969C50.4567 55.0051 50.1526 55.3092 49.7678 55.3284C49.3829 55.3476 49.0501 55.0753 48.3843 54.5306L45.9202 52.5145C44.6496 51.4749 44.0143 50.9551 43.4615 51.1841C42.9087 51.4131 42.827 52.2299 42.6637 53.8634L42.3468 57.0323C42.2612 57.8882 42.2184 58.3162 41.9327 58.5747C41.647 58.8333 41.2169 58.8333 40.3567 58.8333H35.6433C34.7831 58.8333 34.353 58.8333 34.0673 58.5747C33.7816 58.3162 33.7388 57.8882 33.6532 57.0323L33.3364 53.8642C33.1731 52.2307 33.0914 51.4139 32.5386 51.1849C31.9858 50.9559 31.3505 51.4757 30.0799 52.5153L27.6157 54.5315C26.9499 55.0762 26.617 55.3486 26.2322 55.3294C25.8474 55.3102 25.5432 55.006 24.935 54.3978L21.6021 51.0649C20.9939 50.4567 20.6897 50.1525 20.6705 49.7677C20.6513 49.3829 20.9237 49.05 21.4684 48.3842L23.4845 45.9201C24.5241 44.6495 25.0439 44.0142 24.8149 43.4614C24.5859 42.9086 23.7692 42.8269 22.1356 42.6635L18.9677 42.3467H18.9677C18.1117 42.2611 17.6838 42.2183 17.4252 41.9326C17.1667 41.6469 17.1667 41.2169 17.1667 40.3566V35.6433C17.1667 34.7831 17.1667 34.353 17.4252 34.0673C17.6838 33.7816 18.1117 33.7388 18.9677 33.6532H18.9677L22.1364 33.3363C23.77 33.173 24.5867 33.0913 24.8157 32.5385C25.0447 31.9857 24.5249 31.3504 23.4853 30.0798L21.4685 27.6148C20.9238 26.949 20.6514 26.6161 20.6706 26.2313C20.6898 25.8464 20.9939 25.5423 21.6022 24.9341L24.9351 21.6012L24.9351 21.6012C25.5433 20.9929 25.8474 20.6888 26.2323 20.6696C26.6171 20.6504 26.95 20.9228 27.6158 21.4675L30.08 23.4837C31.3506 24.5233 31.9859 25.0431 32.5387 24.8141C33.0915 24.5851 33.1732 23.7683 33.3365 22.1348L33.6532 18.9676V18.9676C33.7388 18.1117 33.7816 17.6837 34.0673 17.4252C34.353 17.1666 34.7831 17.1666 35.6433 17.1666H40.3567C41.2169 17.1666 41.647 17.1666 41.9327 17.4252C42.2184 17.6837 42.2612 18.1117 42.3468 18.9676ZM38 46.3333C42.6024 46.3333 46.3333 42.6023 46.3333 38C46.3333 33.3976 42.6024 29.6666 38 29.6666C33.3976 29.6666 29.6667 33.3976 29.6667 38C29.6667 42.6023 33.3976 46.3333 38 46.3333Z" fill="#BB98FF"/>
</svg>
