<svg width="20" height="19" viewBox="0 0 20 19" fill="none" xmlns="http://www.w3.org/2000/svg">
<path d="M2.84258 10.3962L9.35781 17.0945C9.62308 17.3673 9.75572 17.5036 9.91716 17.5307C9.972 17.54 10.028 17.54 10.0828 17.5307C10.2443 17.5036 10.3769 17.3673 10.6422 17.0945L17.1574 10.3962C18.8046 8.70281 19.0084 6.07506 17.6422 4.14786L17.1441 3.4452C15.4028 0.989032 11.6467 1.37626 10.4432 4.13601C10.2744 4.52297 9.72557 4.52297 9.55682 4.13601C8.35331 1.37626 4.59717 0.989032 2.85594 3.4452L2.35781 4.14786C0.991578 6.07506 1.19545 8.70282 2.84258 10.3962Z" fill="#BB98FF" stroke="#8C52FF" stroke-width="2"/>
</svg>
