<svg width="75" height="75" viewBox="0 0 75 75" fill="none" xmlns="http://www.w3.org/2000/svg">
<path d="M33.75 75C24.1277 75 14.5598 75 5 75C2.23858 75 3.88255e-06 72.7614 3.69376e-06 70C2.21252e-06 48.3333 1.98723e-06 26.6667 3.93316e-07 5.00001C1.90171e-07 2.23859 2.23858 1.24558e-05 5 1.18175e-05C26.6667 6.80954e-06 48.3333 6.10321e-06 70 1.20791e-06C72.7614 5.84002e-07 75 2.23858 75 5C75 26.6666 75 48.3333 75 70C75 72.7614 72.7614 75 70 75C57.9407 75 45.8743 75 33.75 75ZM50.1055 38.5939C49.966 38.5097 49.8369 38.4073 49.7407 38.2759C49.7273 38.2576 49.7139 38.2392 49.7005 38.2207C49.3929 37.7951 49.5572 37.1679 50.0516 36.991C53.2398 35.8503 54.835 33.5244 54.5847 30.1792C54.4996 29.0424 54.0946 28.0456 53.2682 27.2668C52.7163 26.7468 52.1399 26.2416 51.6186 25.691C50.4915 24.5004 49.0453 23.8123 47.3892 23.5008C46.4141 23.3175 45.4073 23.2338 44.4141 23.2273C40.017 23.1989 35.6197 23.2136 31.2225 23.2168C30.8232 23.2171 30.4222 23.2288 30.0249 23.2658C28.714 23.3875 28.3382 24.5183 28.99 25.333C29.5651 26.0519 29.5684 26.876 29.3188 27.7497C27.7834 33.1247 26.2633 38.504 24.7529 43.8861C24.4967 44.7989 24.0168 45.5133 23.1937 45.9916C22.5419 46.3704 21.8909 46.835 22.1365 47.6813C22.4588 48.7921 23.6704 49.8692 24.811 50.0614C24.864 50.0703 24.9192 50.078 24.9766 50.0846C25.1497 50.1043 25.326 50.0991 25.5008 50.0991C30.9984 50.0993 36.496 50.1153 41.9934 50.0839C43.0602 50.0778 44.1396 49.9608 45.1897 49.7671C49.2432 49.0191 51.3551 46.871 51.9877 42.942C52.2542 41.2869 51.4332 39.3952 50.1055 38.5939Z" fill="#8C52FF"/>
<path d="M49.1765 37.5214C49.4137 37.8392 49.651 38.1571 49.9204 38.5698C50.0609 39.2008 50.239 39.7335 50.2661 40.2738C50.4361 43.6535 48.5247 46.489 45.3371 47.6209C43.5743 48.2469 41.7427 48.4472 39.8833 48.4492C34.5358 48.4548 29.1884 48.4593 23.8409 48.4643C23.1703 48.4153 22.3676 48.4776 22.1365 47.6813C21.891 46.835 22.5419 46.3704 23.1937 45.9916C24.0168 45.5133 24.4967 44.7989 24.7529 43.8861C26.2633 38.5041 27.7834 33.1247 29.3188 27.7497C29.5684 26.876 29.5652 26.052 28.99 25.333C28.3383 24.5183 28.714 23.3875 30.0249 23.2658C30.4223 23.2289 30.8232 23.2171 31.2225 23.2169C35.6197 23.2136 40.017 23.1989 44.4141 23.2273C45.4073 23.2338 46.4141 23.3175 47.3892 23.5008C49.4239 23.8835 51.1417 24.8348 52.3768 26.6818C53.3229 28.8398 53.1142 30.8233 51.9146 32.696C50.6995 34.5928 48.7166 35.29 46.7726 35.8129C47.5729 36.3817 48.3747 36.9516 49.1765 37.5214ZM43.0608 28.2326C42.8519 27.2264 42.4272 26.8051 41.4268 26.6875C40.884 26.6236 40.3322 26.6396 39.7867 26.5931C39.3269 26.5539 39.1157 26.761 39.0038 27.1922C38.7472 28.1811 38.4547 29.1608 38.177 30.1442C37.854 31.2879 37.5313 32.4316 37.1607 33.7448C38.0013 33.7029 38.7074 33.6676 39.5425 33.635C40.4231 33.559 41.205 33.2373 41.7243 32.514C42.6116 31.2781 43.1168 29.8984 43.0608 28.2326ZM40.3081 39.2108C40.0049 38.1113 39.5705 37.7326 38.4362 37.6289C37.8923 37.5792 37.3427 37.5933 36.7986 37.5447C36.287 37.4991 36.0423 37.7054 35.9052 38.2038C35.3447 40.2418 34.7464 42.2693 34.1686 44.3026C34.1123 44.5009 34.1011 44.712 34.066 44.9359C34.2505 44.9715 34.3462 45.0061 34.4419 45.0059C35.0137 45.0047 35.5855 44.9956 36.2815 45.0044C37.3224 44.958 38.264 44.6329 38.8916 43.7779C39.8567 42.4632 40.3654 40.9752 40.3081 39.2108Z" fill="#FFFEFF"/>
<path d="M23.8424 48.5198C29.1884 48.4593 34.5358 48.4548 39.8833 48.4492C41.7427 48.4473 43.5743 48.2469 45.3371 47.621C48.5247 46.489 50.4361 43.6535 50.2661 40.2738C50.2389 39.7336 50.0609 39.2009 49.9551 38.6045C51.3423 39.1922 52.2684 41.1985 51.9877 42.942C51.3551 46.871 49.2432 49.0192 45.1897 49.7671C44.1396 49.9609 43.0602 50.0778 41.9934 50.0839C36.496 50.1153 30.9983 50.0993 25.5008 50.0992C25.326 50.0991 25.1497 50.1043 24.9766 50.0846C24.0098 49.9746 23.6795 49.531 23.8424 48.5198Z" fill="#BA97FF"/>
<path d="M49.1917 37.4682C48.3747 36.9515 47.5729 36.3817 46.7726 35.8129C48.7166 35.29 50.6995 34.5928 51.9146 32.696C53.1142 30.8233 53.3229 28.8398 52.4095 26.7207C53.8022 27.421 54.4724 28.6781 54.5847 30.1792C54.835 33.5244 53.2398 35.8503 50.0516 36.991C49.7572 37.0963 49.4879 37.272 49.1917 37.4682Z" fill="#BA97FF"/>
<path d="M36.1572 44.9891C35.5854 44.9956 35.0137 45.0047 34.4419 45.0059C34.3462 45.0061 34.2505 44.9715 34.066 44.9359C34.1011 44.712 34.1123 44.5009 34.1686 44.3026C34.7464 42.2693 35.3447 40.2418 35.9052 38.2038C36.0423 37.7055 36.287 37.4991 36.7986 37.5447C37.3427 37.5933 37.8923 37.5792 38.4362 37.6289C39.5705 37.7326 40.0049 38.1114 40.2408 39.2585C39.5758 39.2973 38.9774 39.3022 38.3805 39.2749C37.9295 39.2543 37.7033 39.4523 37.5863 39.8813C37.1212 41.587 36.6354 43.287 36.1572 44.9891Z" fill="#BA97FF"/>
<path d="M39.4135 33.6324C38.7074 33.6676 38.0012 33.7029 37.1607 33.7449C37.5313 32.4316 37.854 31.2879 38.1769 30.1442C38.4546 29.1608 38.7471 28.1812 39.0038 27.1922C39.1157 26.761 39.3269 26.5539 39.7867 26.5931C40.3322 26.6396 40.8839 26.6236 41.4268 26.6875C42.4272 26.8052 42.8519 27.2264 42.9924 28.2848C42.4289 28.2999 41.9299 28.2111 41.4405 28.2485C41.2054 28.2665 40.8452 28.4804 40.7861 28.6785C40.2962 30.3201 39.8635 31.9788 39.4135 33.6324Z" fill="#BA98FF"/>
<path d="M36.2194 44.9968C36.6354 43.287 37.1213 41.587 37.5863 39.8814C37.7033 39.4523 37.9295 39.2543 38.3805 39.2749C38.9774 39.3022 39.5758 39.2973 40.2405 39.3139C40.3654 40.9753 39.8567 42.4632 38.8916 43.7779C38.264 44.6329 37.3224 44.958 36.2194 44.9968Z" fill="#8D54FF"/>
<path d="M39.478 33.6337C39.8635 31.9788 40.2962 30.3201 40.7861 28.6785C40.8452 28.4804 41.2054 28.2665 41.4405 28.2485C41.9299 28.211 42.4289 28.2999 42.9882 28.3426C43.1168 29.8984 42.6116 31.2781 41.7243 32.514C41.205 33.2373 40.4231 33.559 39.478 33.6337Z" fill="#8D54FF"/>
</svg>
